PathFileType	4	(X/Y/Z)	/Users/itak/Documents/Research/Walk-IL/dataset/trc/00359_00011.trc
DataRate	CameraRate	NumFrames	NumMarkers	Units	OrigDataRate	OrigDataStartFrame	OrigNumFrames
100.000000	100.000000	4	60	mm	100.000000	223	596
Frame#	Time	RPSI			LPSI			L3			STRN			T10			C7			CLAV			RBAK			LBAK			LSHO			LUPA			LAEL			LAOL			LWPS			LFRA			LHPS			LHTS			RSHO			RUPA			RAEL			RAOL			RWTS			RFRA			RIFD			RHTS			RBHD			LFHD			RFHD			LBHD			RHIP			RASI			LASI			LKNE			LTHI			LANK			LTIP			LTOE			LMT1			LMT5			LHEE			RKNE			RTHI			RANK			RTIP			RTOE			RMT1			RMT5			LWTS			LIFD			RWPS			LHIP			RHEE			RHPS			*53			*54			*55			*56			*57			*58			*59			
		X1	Y1	Z1	X2	Y2	Z2	X3	Y3	Z3	X4	Y4	Z4	X5	Y5	Z5	X6	Y6	Z6	X7	Y7	Z7	X8	Y8	Z8	X9	Y9	Z9	X10	Y10	Z10	X11	Y11	Z11	X12	Y12	Z12	X13	Y13	Z13	X14	Y14	Z14	X15	Y15	Z15	X16	Y16	Z16	X17	Y17	Z17	X18	Y18	Z18	X19	Y19	Z19	X20	Y20	Z20	X21	Y21	Z21	X22	Y22	Z22	X23	Y23	Z23	X24	Y24	Z24	X25	Y25	Z25	X26	Y26	Z26	X27	Y27	Z27	X28	Y28	Z28	X29	Y29	Z29	X30	Y30	Z30	X31	Y31	Z31	X32	Y32	Z32	X33	Y33	Z33	X34	Y34	Z34	X35	Y35	Z35	X36	Y36	Z36	X37	Y37	Z37	X38	Y38	Z38	X39	Y39	Z39	X40	Y40	Z40	X41	Y41	Z41	X42	Y42	Z42	X43	Y43	Z43	X44	Y44	Z44	X45	Y45	Z45	X46	Y46	Z46	X47	Y47	Z47	X48	Y48	Z48	X49	Y49	Z49	X50	Y50	Z50	X51	Y51	Z51	X52	Y52	Z52	X53	Y53	Z53	X54	Y54	Z54	X55	Y55	Z55	X56	Y56	Z56	X57	Y57	Z57	X58	Y58	Z58	X59	Y59	Z59	X60	Y60	Z60	

224	2.23	-1158.604370117188	954.8340454101562	870.8358154296875	-1153.098022460938	954.232177734375	741.4210205078125	-1158.714599609375	1019.868408203125	819.2315673828125	-911.6296997070312	1174.334594726562	801.13818359375	-1157.294189453125	1136.202758789062	828.0745239257812	-1088.715454101562	1376.192016601562	802.7774047851562	-940.8018798828125	1303.233032226562	793.8851928710938	-1146.481201171875	1247.459594726562	881.8145141601562	-1115.634033203125	1336.80322265625	705.5039672851562	-1037.455810546875	1339.790161132812	637.4266357421875	-1097.27197265625	1228.11767578125	585.3816528320312	-1150.625732421875	1032.015991210938	590.8951416015625	-1192.68603515625	1039.272094726562	664.5205078125	-1188.35888671875	775.2697143554688	584.7706298828125	-1173.423095703125	929.0726928710938	587.877685546875	-1214.484741210938	712.1563720703125	597.2711791992188	-1154.609375	696.410888671875	615.186767578125	-1016.776489257812	1364.26513671875	960.5797119140625	-1025.404052734375	1302.884765625	1028.575927734375	-1016.116577148438	1039.706298828125	1088.874877929688	-1070.868774414062	1024.530639648438	1012.094177246094	-910.4209594726562	808.3048095703125	1045.454956054688	-988.3150634765625	972.0133666992188	1097.970581054688	-896.3718872070312	635.862548828125	1069.178588867188	-882.6777954101562	708.7101440429688	1064.042358398438	-1000.035278320312	1578.272216796875	869.6892700195312	-867.8938598632812	1563.211303710938	709.9129638671875	-848.8798828125	1568.431396484375	809.5291137695312	-1052.678588867188	1570.8154296875	735.2715454101562	-1094.763305664062	886.6401977539062	981.6526489257812	-984.3721923828125	906.7117309570312	955.6956176757812	-946.2805786132812	918.2852783203125	719.1902465820312	-825.3460083007812	488.147216796875	659.9679565429688	-890.0631713867188	610.574462890625	642.3860473632812	-776.1494140625	58.24713516235352	662.5494384765625	-793.6428833007812	266.1958923339844	646.466796875	-579.0146484375	115.2724533081055	715.7559204101562	-637.8955078125	80.34367370605469	758.430908203125	-655.6220703125	86.9810791015625	646.58740234375	-806.549072265625	48.65410995483398	731.6071166992188	-1156.274658203125	436.0312805175781	952.5104370117188	-1063.309814453125	678.131591796875	985.3977661132812	-1346.8154296875	60.98572540283203	908.296875	-1186.332885742188	317.8071594238281	933.548095703125	-1154.8369140625	47.87298202514648	867.7266235351562	-1206.353515625	42.06633758544922	821.7341918945312	-1248.921508789062	40.76150131225586	932.27880859375	-1132.008911132812	770.615234375	627.3540649414062	-1182.62255859375	616.7332763671875	633.8093872070312	-938.5029296875	798.406005859375	1116.28125	-1056.3291015625	901.916259765625	643.2872314453125	-1393.080078125	66.32732391357422	863.4050903320312	-925.0827026367188	715.2462158203125	1118.7353515625	nan	nan	nan	nan	nan	nan	nan	nan	nan	nan	nan	nan	nan	nan	nan	nan	nan	nan	nan	nan	nan	
225	2.24	-1152.146850585938	953.67138671875	869.2852783203125	-1145.839721679688	952.86474609375	739.9522094726562	-1151.667358398438	1018.455078125	817.8458251953125	-904.6270751953125	1172.549072265625	801.0294799804688	-1150.2890625	1134.755249023438	826.9512939453125	-1081.279663085938	1374.680908203125	802.13037109375	-933.3961791992188	1301.579223632812	793.6631469726562	-1139.481079101562	1245.958374023438	880.9356689453125	-1107.927124023438	1335.417602539062	704.7733154296875	-1029.548828125	1338.314819335938	636.9180297851562	-1089.692993164062	1226.844604492188	584.8789672851562	-1144.357055664062	1031.130981445312	590.9990844726562	-1186.302124023438	1038.861083984375	664.655029296875	-1184.530029296875	774.697021484375	585.5062255859375	-1168.035400390625	928.3825073242188	588.208740234375	-1211.569580078125	711.9068603515625	598.30615234375	-1151.98876953125	695.4752197265625	616.5794067382812	-1009.941772460938	1362.546630859375	960.2246704101562	-1018.634643554688	1300.98193359375	1028.092163085938	-1007.522277832031	1037.7919921875	1088.238037109375	-1062.128662109375	1022.236022949219	1011.459350585938	-899.7556762695312	807.407958984375	1044.799194335938	-979.3187866210938	970.3759155273438	1097.478759765625	-883.9443969726562	635.1123046875	1068.595581054688	-870.9592895507812	708.1190795898438	1063.437255859375	-992.820068359375	1576.807373046875	869.4000244140625	-860.5806274414062	1561.821411132812	709.7001953125	-841.5869750976562	1567.084838867188	809.216552734375	-1045.400512695312	1569.245239257812	734.9365234375	-1089.6484375	885.6911010742188	981.0161743164062	-978.6406860351562	905.1980590820312	955.4345092773438	-939.043212890625	916.2974243164062	719.0014038085938	-819.2503662109375	485.7639770507812	660.828369140625	-884.3757934570312	607.3978271484375	642.6742553710938	-758.2470092773438	58.15018081665039	664.236572265625	-781.5498657226562	265.495849609375	647.6403198242188	-562.1637573242188	119.9257659912109	717.4575805664062	-620.4642333984375	83.55098724365234	759.8890380859375	-638.2662353515625	89.57682037353516	648.2132568359375	-788.3860473632812	47.86898422241211	733.3632202148438	-1153.203247070312	435.6881408691406	952.36376953125	-1059.162963867188	677.5769653320312	985.2827758789062	-1346.674072265625	61.94960784912109	908.160888671875	-1184.161254882812	317.5864868164062	933.4293823242188	-1154.729614257812	47.83788299560547	867.8045043945312	-1206.112670898438	42.13084030151367	821.68603515625	-1248.797485351562	40.93756866455078	932.3173217773438	-1128.397094726562	769.540771484375	628.292236328125	-1181.197143554688	616.3446655273438	635.5343017578125	-927.9511108398438	797.2117309570312	1115.592163085938	-1048.649536132812	900.1546630859375	642.3314819335938	-1394.539794921875	70.45992279052734	860.6192626953125	-913.6446533203125	714.21875	1117.980590820312	nan	nan	nan	nan	nan	nan	nan	nan	nan	nan	nan	nan	nan	nan	nan	nan	nan	nan	nan	nan	nan	
226	2.25	-1145.484252929688	952.5068359375	867.6898803710938	-1138.416381835938	951.4288940429688	738.4273071289062	-1144.432495117188	1017.004272460938	816.3643798828125	-897.4498901367188	1170.798706054688	800.8508911132812	-1143.104736328125	1133.28564453125	825.7178955078125	-1073.703002929688	1373.178100585938	801.378662109375	-925.8743286132812	1299.946533203125	793.3549194335938	-1132.302734375	1244.4462890625	879.9617919921875	-1100.080810546875	1334.028686523438	703.9349365234375	-1021.4873046875	1336.846435546875	636.2981567382812	-1081.904174804688	1225.53515625	584.2593383789062	-1137.7431640625	1030.17919921875	590.9154052734375	-1179.608642578125	1038.330932617188	664.5713500976562	-1180.134155273438	774.060302734375	585.9866333007812	-1162.225219726562	927.6238403320312	588.3314819335938	-1208.057739257812	711.5845947265625	599.07421875	-1148.74755859375	694.5343627929688	617.75244140625	-1002.958984375	1360.8310546875	959.787109375	-1011.719421386719	1299.066284179688	1027.498046875	-998.7969970703125	1035.84375	1087.416748046875	-1053.210205078125	1019.934997558594	1010.612487792969	-888.9258422851562	806.5274658203125	1043.967895507812	-970.165771484375	968.7432250976562	1096.806396484375	-871.3130493164062	634.4124145507812	1067.774658203125	-859.0501098632812	707.5498046875	1062.6357421875	-985.4611206054688	1575.386596679688	869.0112915039062	-853.0875854492188	1560.433471679688	709.418701171875	-834.1375732421875	1565.731323242188	808.83935546875	-1037.94482421875	1567.72998046875	734.478759765625	-1084.35400390625	884.8120727539062	980.4179077148438	-972.674072265625	903.7645263671875	955.117919921875	-931.6363525390625	914.3433227539062	718.7232055664062	-812.7068481445312	483.5984497070312	661.5867309570312	-878.2528076171875	604.3927612304688	642.8609008789062	-741.7811889648438	58.10293197631836	666.1748657226562	-770.0352783203125	264.841064453125	648.8583984375	-546.653076171875	123.9311447143555	719.2554321289062	-604.4539184570312	86.44486999511719	761.5319213867188	-622.2903442382812	91.76602172851562	649.974853515625	-771.6600341796875	47.35812377929688	735.3274536132812	-1149.91650390625	435.4510803222656	952.2233276367188	-1054.615844726562	677.0136108398438	985.0001220703125	-1346.415405273438	63.08991241455078	908.103515625	-1181.815795898438	317.5018310546875	933.3927001953125	-1154.6064453125	47.81447982788086	867.9114990234375	-1205.8291015625	42.23721313476562	821.6786499023438	-1248.623291015625	41.14056777954102	932.4190063476562	-1124.270385742188	768.4476928710938	629.0178833007812	-1179.138793945312	615.9457397460938	637.0266723632812	-917.2841186523438	795.9658203125	1114.687744140625	-1040.819213867188	898.381591796875	641.2758178710938	-1395.20751953125	73.83619689941406	858.8969116210938	-902.0895385742188	713.2063598632812	1117.002563476562	nan	nan	nan	nan	nan	nan	nan	nan	nan	nan	nan	nan	nan	nan	nan	nan	nan	nan	nan	nan	nan	
227	2.26	-1138.58935546875	951.3615112304688	866.061279296875	-1130.8203125	949.94970703125	736.8610229492188	-1136.999755859375	1015.545532226562	814.8012084960938	-890.0867919921875	1169.112915039062	800.5806884765625	-1135.732299804688	1131.826416015625	824.3849487304688	-1065.981079101562	1371.7138671875	800.5296630859375	-918.239013671875	1298.356201171875	792.9547729492188	-1124.932983398438	1242.947387695312	878.8901977539062	-1092.099609375	1332.666748046875	702.9940795898438	-1013.279418945312	1335.412353515625	635.5638427734375	-1073.921997070312	1224.219482421875	583.5306396484375	-1130.793212890625	1029.184814453125	590.642822265625	-1172.6015625	1037.696655273438	664.2779541015625	-1175.160278320312	773.370849609375	586.2023315429688	-1155.989990234375	926.8175659179688	588.2457885742188	-1203.9248046875	711.20458984375	599.5548095703125	-1144.880004882812	693.5929565429688	618.6657104492188	-995.8057861328125	1359.14306640625	959.2582397460938	-1004.6396484375	1297.168334960938	1026.79638671875	-989.940185546875	1033.89404296875	1086.415161132812	-1044.12255859375	1017.663330078125	1009.551574707031	-877.9490356445312	805.6937255859375	1042.938232421875	-960.8563842773438	967.1422119140625	1095.94970703125	-858.5114135742188	633.7976684570312	1066.707153320312	-846.9987182617188	707.0333862304688	1061.633911132812	-977.952880859375	1574.024047851562	868.5137939453125	-845.4149169921875	1559.07568359375	709.0502319335938	-826.5350341796875	1564.39990234375	808.3980102539062	-1030.309204101562	1566.282836914062	733.8992309570312	-1078.740966796875	883.964599609375	979.781005859375	-966.4204711914062	902.4331665039062	954.7281494140625	-924.054931640625	912.4570922851562	718.3524169921875	-805.7074584960938	481.6660766601562	662.2493286132812	-871.622802734375	601.6658935546875	642.9271850585938	-726.89013671875	57.93451690673828	668.3720703125	-759.1455688476562	264.137939453125	650.1506958007812	-532.5548095703125	127.0793838500977	721.0746459960938	-589.9351196289062	88.84260559082031	763.3253173828125	-607.8255615234375	93.36442565917969	651.849365234375	-756.5128784179688	46.98967361450195	737.5332641601562	-1146.4111328125	435.3561706542969	952.1002197265625	-1049.52734375	676.327392578125	984.4435424804688	-1346.027465820312	64.42586517333984	908.15673828125	-1179.288452148438	317.5833435058594	933.4524536132812	-1154.464111328125	47.80761337280273	868.0513916015625	-1205.514526367188	42.39402389526367	821.7219848632812	-1248.387084960938	41.37255859375	932.5934448242188	-1119.615478515625	767.347900390625	629.5050048828125	-1176.411254882812	615.5355224609375	638.2461547851562	-906.5230712890625	794.68896484375	1113.561767578125	-1032.837280273438	896.6245727539062	640.1360473632812	-1395.220703125	76.69142150878906	858.0726928710938	-890.44140625	712.2158203125	1115.791137695312	nan	nan	nan	nan	nan	nan	nan	nan	nan	nan	nan	nan	nan	nan	nan	nan	nan	nan	nan	nan	nan	
